PathFileType	4	(X/Y/Z)	C:/Users/alexw/Dropbox/ABI/BIOMENG 771 Files/BIOMENG_771/KinematicsLab/Right.trc	
DataRate	CameraRate	NumFrames	NumMarkers	Units	OrigDataRate	OrigDataStartFrame	OrigNumFrames	
120.00	120.00	31	8	mm	120.00	430	1623	
Frame#	Time	RAsis			LAsis			RPsis			LPsis			RThighInferior			RThighLateral			RPatella			RThighSuperior			
		X1	Y1	Z1	X2	Y2	Z2	X3	Y3	Z3	X4	Y4	Z4	X5	Y5	Z5	X6	Y6	Z6	X7	Y7	Z7	X8	Y8	Z8	

406	3.375	-410.78925	198.05771	1036.38403	-158.15817	120.03770	991.42139	-241.32990	362.16290	969.84894	-184.16023	343.66205	970.57623	-445.04825	87.11391	608.20514	-415.17651	77.27374	708.26453	-405.83081	40.93827	526.49377	-450.87756	207.85429	824.84723 
407	3.383	-410.85147	198.27359	1036.60925	-158.29951	120.01373	991.40601	-241.23195	362.30429	969.96594	-184.06818	343.74341	970.67035	-445.05237	87.14207	608.63000	-415.01886	77.43367	708.53363	-405.86972	41.24601	526.37994	-450.98645	207.89253	825.19958 
408	3.392	-410.92087	198.49272	1036.85071	-158.44382	120.00598	991.38452	-241.08360	362.45889	970.10291	-183.93178	343.83841	970.77875	-445.18457	87.14371	609.11774	-414.93307	77.52137	708.83813	-406.11447	41.05935	526.76349	-451.03442	207.91553	825.73077 
409	3.400	-410.90173	198.79218	1037.02673	-158.56490	119.96880	991.37177	-240.96172	362.62830	970.24890	-183.77968	343.91977	970.88489	-445.32065	86.92484	609.72888	-414.85260	77.54951	709.19818	-406.29602	41.11339	526.81512	-451.09570	207.82745	825.98016 
410	3.408	-410.86450	199.05452	1037.15991	-158.75153	119.91597	991.34186	-240.85712	362.76065	970.42938	-183.74063	343.97037	971.03967	-445.49036	86.45979	610.52203	-414.80402	77.51752	709.69580	-406.63943	40.59934	527.12646	-451.24640	207.72231	826.40747 
411	3.417	-410.76642	199.38797	1037.31104	-158.94330	119.91612	991.28870	-240.73419	362.95343	970.55701	-183.62909	344.06033	971.14697	-445.68851	85.67756	611.57593	-414.85779	77.41425	710.41687	-407.14935	39.77639	527.65643	-451.34683	207.65193	826.75537 
412	3.425	-410.76199	199.78413	1037.42578	-159.11891	119.93963	991.27997	-240.73473	363.11987	970.66479	-183.47495	344.21893	971.30029	-446.01434	84.76054	612.69263	-414.98346	77.04081	711.44928	-407.75354	38.80503	528.25031	-451.47653	207.71558	827.26514 
413	3.433	-410.75949	200.21902	1037.69714	-159.29166	119.98673	991.26178	-240.59894	363.30734	970.75763	-183.23807	344.43170	971.50061	-446.49213	83.47771	614.00562	-415.19556	76.51530	712.54291	-408.80719	37.49344	529.17712	-451.57684	207.79683	827.74432 
414	3.442	-410.73224	200.74442	1037.84412	-159.50432	120.03452	991.29187	-240.50117	363.50864	970.86267	-183.05463	344.60840	971.58167	-446.99652	82.04922	615.57239	-415.54221	75.95148	713.81573	-410.12561	35.88114	530.08154	-451.93311	207.88441	828.44031 
415	3.450	-410.70578	201.18523	1038.05225	-159.60515	120.06313	991.33038	-240.26158	363.78220	970.90765	-182.86160	344.84756	971.78961	-448.01636	80.69932	617.11621	-416.36511	75.37077	715.22870	-411.59537	33.95602	531.07471	-452.34561	208.20555	829.02576 
416	3.458	-410.65088	201.81816	1038.17993	-159.74811	120.12894	991.34308	-239.90146	364.19293	971.03247	-182.59993	345.12979	971.94208	-449.34424	79.26599	618.99768	-417.25928	74.79193	717.01160	-413.36829	31.85662	532.55103	-452.71820	208.41222	829.73279 
417	3.467	-410.64667	202.63742	1038.38953	-159.91383	120.24926	991.33569	-239.52898	364.57880	971.18097	-182.33943	345.38120	972.07312	-450.99542	77.80869	620.81610	-418.68866	73.96735	718.78174	-416.34436	29.43052	534.18726	-453.23380	208.79324	830.39014 
418	3.475	-410.66486	203.51074	1038.59912	-160.07512	120.36437	991.30609	-239.26881	364.88742	971.24530	-182.06602	345.69193	972.16846	-452.84946	76.19559	622.92023	-420.28079	73.28374	720.62396	-418.96677	26.54379	536.40149	-453.53363	209.13037	830.89569 
419	3.483	-410.58044	204.20319	1038.68909	-160.23409	120.51718	991.25537	-238.95338	365.22122	971.29541	-181.77258	345.91083	972.23877	-455.30292	74.61076	625.06866	-422.21021	72.36744	722.66425	-422.01688	24.05762	538.29285	-454.25876	209.78285	831.67456 
420	3.492	-410.26105	204.95393	1038.65637	-160.30838	120.67874	991.16925	-238.47058	365.65402	971.31824	-181.48398	346.14987	972.21667	-457.88937	73.01175	627.25519	-424.61926	71.39271	724.97113	-425.41135	21.48401	540.37109	-454.98624	210.42912	832.54102 
421	3.500	-409.93063	205.77916	1038.71985	-160.45383	120.87039	991.08563	-238.05617	366.01276	971.37573	-181.15755	346.39584	972.16272	-460.76648	71.30771	629.66132	-427.38885	70.65215	727.01886	-428.98376	18.79215	542.68591	-455.46756	211.14159	833.34491 
422	3.508	-409.77515	206.55809	1038.88989	-160.57510	121.09218	990.96796	-237.73613	366.36063	971.34918	-180.68417	346.71008	972.16077	-463.51486	69.96635	631.99854	-429.94077	69.71183	729.28888	-432.80133	15.90862	545.12531	-456.08597	211.84239	834.08484 
423	3.517	-409.40921	207.46301	1038.86829	-160.73193	121.24305	990.84113	-237.23227	366.71841	971.34998	-180.20631	347.00494	972.19275	-466.53836	68.67052	634.37964	-432.84937	68.97621	731.63550	-436.78183	12.96346	547.86792	-457.02664	212.69437	834.85040 
424	3.525	-408.97574	208.20146	1038.85791	-160.86850	121.43460	990.69476	-236.69252	367.10373	971.34979	-179.77176	347.29398	972.17920	-469.71542	67.26607	636.70886	-435.98276	68.10723	734.16162	-441.27698	10.35620	550.68042	-457.91232	213.59671	835.51794 
425	3.533	-408.53079	208.94774	1038.90344	-160.93907	121.65597	990.59985	-236.26291	367.40646	971.37653	-179.42931	347.54355	972.07318	-473.35989	66.04912	639.40454	-439.05826	67.47460	736.45135	-445.73602	7.81347	553.42450	-457.46957	213.75583	835.76282 
426	3.542	-407.95425	209.65031	1038.93311	-160.97237	121.86599	990.47699	-235.84396	367.73370	971.41931	-179.00250	347.76303	972.04413	-476.86090	64.84603	641.89581	-442.28326	66.87415	738.85266	-450.32083	5.34401	556.31543	-458.70544	215.10793	836.57416 
427	3.550	-407.45480	210.34261	1038.99597	-160.92128	122.13757	990.30438	-235.22998	368.09058	971.40509	-178.53156	348.03302	972.05273	-480.49832	63.68978	644.55988	-445.65311	66.66766	741.31836	-455.10550	3.05419	559.20648	-459.72476	216.38499	837.56055 
428	3.558	-406.94366	210.95010	1039.09558	-160.81253	122.41423	990.19330	-234.64212	368.53937	971.59467	-178.02151	348.26553	971.99707	-484.19821	62.73471	647.10614	-449.04947	66.30976	743.83856	-460.03052	1.06792	562.42999	-460.42603	217.53215	838.46405 
429	3.567	-406.37131	211.45375	1039.17090	-160.61249	122.64804	990.08588	-234.26602	368.55704	971.53046	-177.54840	348.52933	972.02753	-487.93762	61.82056	649.75751	-452.37860	66.18472	746.36334	-465.10446	-0.89990	565.58606	-461.03366	218.57080	839.26874 
430	3.575	-405.76379	211.82648	1039.28162	-160.33057	122.92074	989.98779	-233.68085	368.83691	971.63684	-177.09161	348.80750	972.02966	-491.87357	61.37695	652.52789	-455.66675	66.16766	748.96625	-470.05948	-2.55913	568.73810	-462.00046	219.75742	840.47577 
431	3.583	-405.16974	212.08005	1039.41699	-159.86923	123.13313	989.96497	-233.00079	369.18640	971.73840	-176.59462	349.10678	972.05481	-495.86200	60.97599	655.37329	-458.96069	66.09975	751.51154	-475.15186	-3.90442	572.04510	-462.71063	220.80402	841.59308 
432	3.592	-404.63202	212.27005	1039.53870	-159.31068	123.35485	989.90204	-232.48993	369.36496	971.81775	-175.99699	349.40570	972.11084	-499.80179	60.72849	658.13312	-462.36084	66.34536	753.98511	-480.38809	-4.97647	575.21368	-463.26849	221.61192	842.41980 
433	3.600	-404.05130	212.37459	1039.70776	-158.74318	123.52515	989.83319	-231.84789	369.68060	972.03192	-175.48933	349.62180	972.06616	-503.84277	60.68032	661.02557	-465.48019	66.54895	756.56122	-485.35272	-5.99768	578.45819	-463.87485	222.57143	843.80231 
434	3.608	-403.41931	212.44685	1039.92444	-158.03578	123.69715	989.73798	-231.40192	369.76178	972.11865	-175.10129	349.71750	972.05109	-507.55289	60.47789	663.90002	-468.49008	66.80704	759.10315	-490.19165	-6.90978	581.87701	-464.49435	223.37633	845.23938 
435	3.617	-402.79001	212.44844	1040.16406	-157.43106	123.82406	989.67877	-230.89417	369.88980	972.20392	-174.58229	349.84003	972.06384	-511.01428	60.50191	666.46893	-471.53488	67.25898	761.59381	-494.99423	-7.55641	585.13959	-464.89627	224.02524	846.52429 
436	3.625	-402.13696	212.41637	1040.45166	-156.60760	124.01215	989.63684	-230.27238	370.04477	972.44989	-174.08574	349.98691	972.14343	-514.54761	60.50034	669.12823	-474.26212	67.64462	764.07776	-499.61578	-8.06969	588.66931	-465.52945	224.76057	847.89966 
